<svg xmlns="http://www.w3.org/2000/svg" viewBox="0 0 128 128" role="img" aria-label="Codex">
  <defs>
    <linearGradient id="cloud" x1="35" y1="20" x2="95" y2="112" gradientUnits="userSpaceOnUse">
      <stop offset="0" stop-color="#b98cff"/>
      <stop offset="0.5" stop-color="#5c78ff"/>
      <stop offset="1" stop-color="#2f31f4"/>
    </linearGradient>
    <radialGradient id="glow" cx="48" cy="28" r="86" gradientUnits="userSpaceOnUse">
      <stop offset="0" stop-color="#ffffff" stop-opacity="0.72"/>
      <stop offset="0.35" stop-color="#ffffff" stop-opacity="0.18"/>
      <stop offset="1" stop-color="#ffffff" stop-opacity="0"/>
    </radialGradient>
    <filter id="soft-shadow" x="-30%" y="-25%" width="160%" height="160%">
      <feDropShadow dx="0" dy="12" stdDeviation="10" flood-color="#1a1f7c" flood-opacity="0.22"/>
    </filter>
  </defs>
  <rect x="3" y="3" width="122" height="122" rx="28" fill="#fbfbf8"/>
  <path filter="url(#soft-shadow)" fill="url(#cloud)" d="M48.5 109.6c-17.6 0-31.9-13.5-31.9-30.2 0-14.5 10.7-26.6 25.2-29.5C45.4 32 61.8 18.5 81.3 18.5c20.4 0 37 14.8 37 33.1 0 4.1-.8 8-2.3 11.6 8.5 5.3 14.1 14.3 14.1 24.5 0 16.1-13.9 29.2-31 29.2H48.5Z" transform="translate(-9 -3) scale(0.98)"/>
  <path fill="url(#glow)" d="M38.5 39.2c6.9-12.5 20.6-20.7 36.1-20.7 20.4 0 37 14.8 37 33.1 0 2.6-.3 5.2-1 7.6-18.6-8-47.2-9.1-72.1-20Z" opacity="0.9"/>
  <path fill="none" stroke="#fff" stroke-linecap="round" stroke-linejoin="round" stroke-width="9" d="M45 51.5 61.5 69 45 86.5"/>
  <path fill="none" stroke="#fff" stroke-linecap="round" stroke-width="9" d="M76 82h25"/>
</svg>
